# xmcd CD database file
#
# Track frame offsets:
#	150
#	11716
#	17570
#	33628
#	50797
#	64587
#	83847
#	104658
#	113424
#	128007
#	149481
#	165738
#	179809
#	195147
#	216367
#
# Disc length: 2987 seconds
#
# Revision: 0
# Processed by: cddbd v1.5.2PL0 Copyright (c) Steve Scherf et al.
# Submitted via: CDex 1.70beta2
#
DISCID=d40ba90f
DTITLE=LAL - Deportation
DYEAR=1900
DGENRE=Jazz
TTITLE0=Where We Belong
TTITLE1=Alarm (Interlude feat. Kamau)
TTITLE2=Alarm
TTITLE3=Light Of Day
TTITLE4=Erase Me
TTITLE5=How The World Began
TTITLE6=Hopeful
TTITLE7=Your Body Could Start a War (feat.Leah)
TTITLE8=Self Defense
TTITLE9=London Bridge
TTITLE10=Wasteland
TTITLE11=Alive
TTITLE12=Wide Open
TTITLE13=Everyday In February
TTITLE14=LAL - Thames Whale
EXTD=
EXTT0=
EXTT1=
EXTT2=
EXTT3=
EXTT4=
EXTT5=
EXTT6=
EXTT7=
EXTT8=
EXTT9=
EXTT10=
EXTT11=
EXTT12=
EXTT13=
EXTT14=
PLAYORDER=
